<svg xmlns="http://www.w3.org/2000/svg" version="1.1" xmlns:xlink="http://www.w3.org/1999/xlink" xmlns:svgjs="http://svgjs.dev/svgjs" width="2000" height="621" viewBox="0 0 2000 621"><g transform="matrix(1,0,0,1,-1.2121212121212466,0.6694637766044025)"><svg viewBox="0 0 396 123" data-background-color="#ffffff" preserveAspectRatio="xMidYMid meet" height="621" width="2000" xmlns="http://www.w3.org/2000/svg" xmlns:xlink="http://www.w3.org/1999/xlink"><g id="tight-bounds" transform="matrix(1,0,0,1,0.2400000000000091,-0.1325991055110194)"><svg viewBox="0 0 395.52 123.26519821102202" height="123.26519821102202" width="395.52"><g><svg viewBox="0 0 395.52 123.26519821102202" height="123.26519821102202" width="395.52"><g><svg viewBox="0 0 395.52 123.26519821102202" height="123.26519821102202" width="395.52"><g><svg viewBox="0 0 605.5049010659787 188.70773070298128" height="123.26519821102202" width="395.52"><g transform="matrix(1,0,0,1,0,26.08044613912405)"><svg viewBox="0 0 395.52 136.54683842473318" height="136.54683842473318" width="395.52"><g><svg viewBox="0 0 395.52 136.54683842473318" height="136.54683842473318" width="395.52"><g><svg viewBox="0 0 395.52 136.54683842473318" height="136.54683842473318" width="395.52"><g transform="matrix(1,0,0,1,0,0)"><svg width="395.52" viewBox="10.5 -36.3 135.84 46.9" height="136.54683842473318" data-palette-color="#ff851b"><path d="M15 0.6L15 0.6Q13.1 0.6 11.8-0.68 10.5-1.95 10.5-4.05L10.5-4.05Q10.5-6.1 11.8-7.4 13.1-8.7 15-8.7L15-8.7Q16.9-8.7 18.2-7.4 19.5-6.1 19.5-4.05L19.5-4.05Q19.5-1.95 18.2-0.68 16.9 0.6 15 0.6ZM39.7 10.6L39.7 10.6Q37.7 10.6 35.87 10.13 34.05 9.65 32.6 8.95L32.6 8.95 34.15 5.3Q36.9 6.6 39.55 6.6L39.55 6.6Q42.9 6.6 44.1 4.98 45.3 3.35 45.3 0.35L45.3 0.35 45.3-20.45 34.35-20.45 34.35-24.45 50.25-24.45 50.25 0.05Q50.25 2.3 49.75 4.23 49.25 6.15 48.02 7.58 46.8 9 44.77 9.8 42.75 10.6 39.7 10.6ZM47.35-29.2L47.35-29.2Q45.75-29.2 44.7-30.18 43.65-31.15 43.65-32.75L43.65-32.75Q43.65-34.35 44.7-35.33 45.75-36.3 47.35-36.3L47.35-36.3Q48.95-36.3 50-35.33 51.05-34.35 51.05-32.75L51.05-32.75Q51.05-31.15 50-30.18 48.95-29.2 47.35-29.2ZM75 0.6L75 0.6Q72.59 0.6 70.4-0.25 68.2-1.1 66.5-2.75 64.8-4.4 63.8-6.78 62.8-9.15 62.8-12.2L62.8-12.2Q62.8-15.25 63.8-17.65 64.8-20.05 66.5-21.7 68.2-23.35 70.4-24.2 72.59-25.05 75-25.05L75-25.05Q77.4-25.05 79.59-24.2 81.8-23.35 83.5-21.7 85.2-20.05 86.2-17.65 87.2-15.25 87.2-12.2L87.2-12.2Q87.2-9.15 86.2-6.78 85.2-4.4 83.5-2.75 81.8-1.1 79.59-0.25 77.4 0.6 75 0.6ZM75-3.45L75-3.45Q78.3-3.45 80.2-5.85 82.09-8.25 82.09-12.2L82.09-12.2Q82.09-16.15 80.2-18.55 78.3-20.95 75-20.95L75-20.95Q71.7-20.95 69.8-18.55 67.9-16.15 67.9-12.2L67.9-12.2Q67.9-8.25 69.8-5.85 71.7-3.45 75-3.45ZM110.24 0L105.29 0 105.29-20.45 94.34-20.45 94.34-24.45 110.24-24.45 110.24 0ZM107.34-29.2L107.34-29.2Q105.74-29.2 104.69-30.18 103.64-31.15 103.64-32.75L103.64-32.75Q103.64-34.35 104.69-35.33 105.74-36.3 107.34-36.3L107.34-36.3Q108.94-36.3 109.99-35.33 111.04-34.35 111.04-32.75L111.04-32.75Q111.04-31.15 109.99-30.18 108.94-29.2 107.34-29.2ZM129.34 0L124.39 0 124.39-24.45 128.44-24.45 128.84-20.5 129.04-20.5Q130.89-22.4 133.04-23.73 135.19-25.05 138.04-25.05L138.04-25.05Q142.34-25.05 144.34-22.5 146.34-19.95 146.34-15.15L146.34-15.15 146.34 0 141.39 0 141.39-14.5Q141.39-17.7 140.24-19.23 139.09-20.75 136.29-20.75L136.29-20.75Q134.34-20.75 132.79-19.78 131.24-18.8 129.34-16.85L129.34-16.85 129.34 0Z" opacity="1" transform="matrix(1,0,0,1,0,0)" fill="#ffffff" class="undefined-text-0" data-fill-palette-color="primary" id="text-0"></path></svg></g></svg></g></svg></g></svg></g><g transform="matrix(1,0,0,1,427.7554314279573,0)"><svg viewBox="0 0 177.74946963802148 188.70773070298128" height="188.70773070298128" width="177.74946963802148"><g><svg xmlns="http://www.w3.org/2000/svg" xmlns:xlink="http://www.w3.org/1999/xlink" version="1.1" x="0" y="0" viewBox="18.45259014601097 16.433999999999997 50.86045138066502 53.995999999999995" enable-background="new 0 0 90 90" xml:space="preserve" height="188.70773070298128" width="177.74946963802148" class="icon-icon-0" data-fill-palette-color="accent" id="icon-0"><path d="M68.617 46.749c-1.019-2.724-3.037-4.888-5.683-6.092-1.43-0.651-2.945-0.979-4.506-0.979-1.95 0-3.812 0.546-5.438 1.486l-9.532-11.926c0.198-0.314 0.38-0.64 0.538-0.983 1.908-4.194 0.05-9.16-4.141-11.068-1.097-0.5-2.261-0.753-3.458-0.753-3.269 0-6.257 1.92-7.613 4.894-1.909 4.193-0.05 9.158 4.143 11.071 1.097 0.5 2.262 0.753 3.458 0.753 1.759 0 3.428-0.572 4.815-1.551l9.256 11.579c-0.779 0.839-1.445 1.792-1.933 2.866-0.966 2.116-1.212 4.435-0.754 6.672l-13.812 5.029c-0.862-1.432-2.125-2.573-3.679-3.28-1.097-0.501-2.262-0.754-3.46-0.754-3.268 0-6.256 1.922-7.608 4.893-0.926 2.03-1.006 4.301-0.223 6.392 0.782 2.09 2.331 3.752 4.363 4.676 1.098 0.5 2.263 0.756 3.464 0.756 3.266 0 6.25-1.922 7.604-4.895 0.685-1.51 0.903-3.146 0.651-4.743l13.81-5.029c1.119 2.064 2.86 3.714 5.035 4.703 1.432 0.651 2.947 0.98 4.511 0.98 4.256 0 8.143-2.503 9.903-6.374C69.532 52.428 69.637 49.473 68.617 46.749zM31.466 64.189c-0.829 1.819-2.656 2.996-4.656 2.996-0.731 0-1.444-0.156-2.12-0.462-1.244-0.568-2.192-1.584-2.671-2.863-0.48-1.28-0.431-2.668 0.136-3.913 0.829-1.819 2.658-2.998 4.659-2.998 0.73 0 1.443 0.158 2.115 0.465 1.246 0.566 2.194 1.584 2.671 2.862C32.079 61.555 32.033 62.945 31.466 64.189z" fill="#ffffff" data-fill-palette-color="accent"></path></svg></g></svg></g></svg></g></svg></g></svg></g><defs></defs></svg><rect width="395.52" height="123.26519821102202" fill="none" stroke="none" visibility="hidden"></rect></g></svg></g></svg>